<svg xmlns="http://www.w3.org/2000/svg" viewBox="185 0 56 38">
<path d="M201.001 0.820829H185.001L217.908 24.5603L201.454 36.9521H220.808C223.709 36.9521 226.338 36.362 227.607 35.3634L239.211 26.6029C240.978 25.2866 240.933 23.7433 239.12 22.4269L212.786 3.4989C210.52 1.81943 205.987 0.820829 201.001 0.820829Z" fill="#2C318E"/>
<path d="M240.072 25.7858C240.117 25.7404 240.163 25.695 240.208 25.6043C240.299 25.4681 240.389 25.2865 240.435 25.1504V25.105C240.48 24.9234 240.525 24.7872 240.525 24.6057C240.525 24.5149 240.48 24.3787 240.48 24.2879C240.48 24.1971 240.48 24.1518 240.435 24.061C240.389 23.9702 240.344 23.834 240.299 23.7432C240.253 23.6525 240.253 23.6071 240.208 23.5163C240.117 23.3801 240.027 23.2893 239.936 23.1531C239.891 23.1078 239.845 23.0624 239.8 22.9716C239.619 22.79 239.437 22.6538 239.211 22.4723L212.786 3.49885C225.885 12.9856 226.928 17.797 217.908 24.6057L201.454 36.9974H220.809C221.171 36.9974 221.488 36.9974 221.806 36.952C222.123 36.952 222.35 36.952 222.576 36.9066C222.758 36.9066 222.894 36.8612 223.12 36.8612C223.301 36.8158 223.483 36.8158 223.709 36.7704C223.845 36.7704 224.072 36.7251 224.253 36.6797C224.435 36.6797 224.616 36.6343 224.752 36.5889C224.933 36.5435 225.115 36.4981 225.25 36.4527C225.432 36.4073 225.613 36.3619 225.704 36.3165C225.885 36.2711 226.066 36.1804 226.202 36.135C226.338 36.0896 226.429 36.0442 226.656 35.9534C226.837 35.8626 227.018 35.7718 227.199 35.6811C227.426 35.5449 227.562 35.4087L239.165 26.6483C239.256 26.5575 239.392 26.4667 239.483 26.4213C239.573 26.3305 239.664 26.2851 239.8 26.149C239.891 26.0128 239.981 25.922 240.072 25.7858Z" fill="#FDB913"/>
</svg>
